<svg id="New_Layer" data-name="New Layer" xmlns="http://www.w3.org/2000/svg" width="0.9in" height="0.91in" viewBox="0 0 64.8 65.38"><defs><style>.cls-1{fill-rule:evenodd;}</style></defs><title>seasons</title><path class="cls-1" d="M37.38,3.58c-.26.26-.29.47-.29,1.92A9,9,0,0,1,37,7.14s-.7-.39-1.44-.85A7.88,7.88,0,0,0,34,5.43a1.27,1.27,0,0,0-1,1.13c0,.58.12.71,2.29,2.09L37,9.8l0,.88c0,.74,0,.88-.21,1A9.38,9.38,0,0,0,34.28,13l-.57.51-.78-.44-.79-.46-.08-2.22a12.87,12.87,0,0,0-.27-2.57A1.09,1.09,0,0,0,30,7.74a5.67,5.67,0,0,0-.14,1.93l0,1.61-.32-.17c-.19-.09-.76-.42-1.28-.71-1.48-.87-2.39-.69-2.39.46,0,.6.25.86,1.73,1.68.6.34,1.07.67,1,.74a9.09,9.09,0,0,1-1.33.74c-1.35.68-1.5.83-1.65,1.4-.08.31,0,.46.33.82s.77.53,1.31.24l2.08-1.08,1.72-.88.78.47c.74.45.77.48.65.89a8.1,8.1,0,0,0,0,2.95c.14.35.1.4-.67.84l-.81.45L28.92,19c-1.84-1-2.2-1.08-2.49-1a1.16,1.16,0,0,0-.79.88c-.12.56.3,1,1.78,1.77a4.28,4.28,0,0,1,1.21.76c0,.05-.64.42-1.32.81-1.41.83-1.74,1.24-1.42,1.88a1.47,1.47,0,0,0,.56.6c.36.21.45.2,1.14-.16.41-.21,1.1-.58,1.51-.82l.75-.44,0,1.73c0,1.67,0,1.74.28,2a1.18,1.18,0,0,0,1.52,0c.23-.25.3-.66.41-2.65L32.19,22l.76-.45.79-.47.59.55a4.87,4.87,0,0,0,2.12,1.21L37,23v1.81L35.1,26.07c-2.36,1.51-2.69,2-1.8,2.83.46.45.91.34,2.33-.57.72-.47,1.35-.85,1.39-.85a9.87,9.87,0,0,1,.07,1.67c0,1.48,0,1.72.27,1.94a1.14,1.14,0,0,0,1.48,0c.27-.27.33-.5.39-1.94l.07-1.62,1.33.85a6.93,6.93,0,0,0,1.68.84,1.23,1.23,0,0,0,1-1.12c0-.51-.3-.78-2.47-2.15l-1.65-1v-1c0-.82,0-1,.25-1a6.9,6.9,0,0,0,2.43-1.23l.63-.53.74.41L44,22l.1.86c0,.46.08,1.36.08,2,0,1.93.29,2.5,1.27,2.5a.85.85,0,0,0,.72-.39c.3-.36.32-.47.22-2l-.1-1.62.61.35c2,1.18,2.25,1.28,2.69,1.18a1.09,1.09,0,0,0,.85-1c0-.47-.6-1-1.88-1.72a7.12,7.12,0,0,1-1.11-.67,15.13,15.13,0,0,1,1.43-.77,6.59,6.59,0,0,0,1.56-1,1.08,1.08,0,0,0-.64-1.58.91.91,0,0,0-.91.11l-2.12,1.08-1.62.84-.58-.32c-1-.53-1-.56-.8-1.43a5.81,5.81,0,0,0-.08-2.5c-.1-.43-.06-.47.69-.9l.78-.45,2,1.07a14.71,14.71,0,0,0,2.36,1.08,1.26,1.26,0,0,0,1-1.11c0-.53-.34-.83-1.9-1.67l-1.25-.68,1.18-.67c1.56-.89,1.67-1,1.77-1.49a.94.94,0,0,0-.22-.83c-.47-.59-1-.51-2.48.33-.67.39-1.25.71-1.29.71a6.06,6.06,0,0,1,0-1.62c.1-1.62.1-1.63-.26-2a1,1,0,0,0-1.52,0c-.3.31-.33.52-.44,2.58-.06,1.24-.11,2.29-.13,2.35a3.23,3.23,0,0,1-.8.53l-.78.45-.71-.64a5.86,5.86,0,0,0-2.4-1.22c-.09,0-.14-.43-.14-1v-1L41,8.63a22.52,22.52,0,0,0,2.06-1.38A1.09,1.09,0,0,0,42.5,5.5c-.36-.08-.64,0-1.81.79l-1.39.86-.07-1.66c-.08-1.52-.1-1.67-.42-1.92A1.09,1.09,0,0,0,37.38,3.58Zm2.29,10.54a3.46,3.46,0,0,1,2,3.26,3.52,3.52,0,0,1-6,2.46,3.08,3.08,0,0,1-1-2.21,3.55,3.55,0,0,1,3.93-3.85A3.71,3.71,0,0,1,39.67,14.12Z" transform="translate(-3.6 -3.31)"/><path class="cls-1" d="M55.91,21.6C51.74,26,49.52,29,48,32a17.76,17.76,0,0,0-.94,2.4,10.37,10.37,0,0,0,1.44,7.2,13.64,13.64,0,0,0,3.74,3.64,14.55,14.55,0,0,0,3.77,1.32l.53.09v2.7c0,2.68,0,2.7.35,3a1,1,0,0,0,1.41.05l.37-.28V46.69l.54-.09a10.82,10.82,0,0,0,8.85-8.09c.76-3,.12-5.44-2.49-9.4a60.72,60.72,0,0,0-7-8.36l-1-1Zm2.43,7.6.37.28v6.57l1-1c1.21-1.18,1.67-1.31,2.32-.65s.41,1-1.59,3l-1.78,1.78v1.61c0,1.4,0,1.62-.28,1.87a1.06,1.06,0,0,1-1.55-.08c-.26-.33-.3-.59-.3-2V39.07L54.8,37.29C53.25,35.74,53,35.45,53,35.06a1,1,0,0,1,1-1c.38,0,.64.18,1.49,1l1,1V29.59l.35-.34A1,1,0,0,1,58.34,29.2Z" transform="translate(-3.6 -3.31)"/><path class="cls-1" d="M15.59,22.06a5.88,5.88,0,0,0-2.72,1.7,6.58,6.58,0,0,0-1.68,5l.1.77H9.72A4.35,4.35,0,0,0,7.18,30a6.57,6.57,0,0,0-3,3,4.13,4.13,0,0,0-.53,2.7A4.32,4.32,0,0,0,4,38.28a6.27,6.27,0,0,0,6.19,3.66l1.06-.07-.1.78a6.3,6.3,0,0,0,7.74,6.8,5.59,5.59,0,0,0,2.8-1.58,6,6,0,0,0,1.95-5l-.08-1,1.11.07a6,6,0,0,0,4.52-1.57,6.24,6.24,0,0,0-1.52-10.33,4.28,4.28,0,0,0-2.59-.51H23.6l.08-1a6.29,6.29,0,0,0-3.6-6.14,4.37,4.37,0,0,0-2.36-.56A5.07,5.07,0,0,0,15.59,22.06Zm4.22,8.62a5.84,5.84,0,0,1,2.68,2.74,4,4,0,0,1,.45,2.3A3.9,3.9,0,0,1,22.5,38a5.91,5.91,0,0,1-2.76,2.76,4,4,0,0,1-2.34.44A3.83,3.83,0,0,1,15,40.73a6.13,6.13,0,0,1-2.66-2.67,5.6,5.6,0,0,1,3.27-7.65,5,5,0,0,1,2-.19A4.1,4.1,0,0,1,19.81,30.68Z" transform="translate(-3.6 -3.31)"/><path class="cls-1" d="M16.29,32.51A3.41,3.41,0,0,0,15,38.09a3.11,3.11,0,0,0,2.38,1,3.36,3.36,0,0,0,3.34-2.75A3.41,3.41,0,0,0,16.29,32.51Z" transform="translate(-3.6 -3.31)"/><path class="cls-1" d="M36.94,41.84a9.89,9.89,0,0,1-1.54,1.35c-.57.29-1.41.2-3-.31a4.52,4.52,0,0,0-1.21-.27,11.21,11.21,0,0,0-.4,1.33c-.47,1.88-.78,2.41-1.66,2.82a11.39,11.39,0,0,1-1.81.57,5.91,5.91,0,0,0-1.18.34,2.15,2.15,0,0,0,.17,1,16.62,16.62,0,0,1,.44,1.79c.2,1.15,0,1.55-1.46,3l-1.13,1.12,1.15,1.18c1.5,1.55,1.64,1.88,1.38,3.25-.11.57-.31,1.32-.42,1.66a3.72,3.72,0,0,0-.23.8c0,.11.4.27,1,.4a6.85,6.85,0,0,1,2.83,1.13,7.57,7.57,0,0,1,1,2.73,7,7,0,0,0,.22.94,3,3,0,0,0,1.15-.24,12.83,12.83,0,0,1,2-.44,1.66,1.66,0,0,1,1.45.3,13.94,13.94,0,0,1,1.49,1.36l.94,1,1.11-1.11a10.57,10.57,0,0,1,1.59-1.35c.6-.31,1.59-.23,3.2.27.61.2,1.14.34,1.14.33s.15-.6.33-1.3a13.22,13.22,0,0,1,.62-1.92c.4-.81,1.05-1.16,2.89-1.57l1.31-.32-.34-1.08a11.22,11.22,0,0,1-.43-2c-.07-.89-.06-1,.31-1.49.23-.3.84-1,1.37-1.48l1-.92-1.06-1.07c-1.52-1.49-1.68-1.79-1.58-2.87a12.48,12.48,0,0,1,.44-2l.34-1.1-.38-.08a16.93,16.93,0,0,1-3-.91c-.67-.33-1-1.07-1.45-2.82-.17-.68-.31-1.25-.34-1.28a6.42,6.42,0,0,0-1.17.3,5.33,5.33,0,0,1-2.94.38,8.69,8.69,0,0,1-1.65-1.35,9.72,9.72,0,0,0-1.3-1.19S37.53,41.23,36.94,41.84Zm2.9,5a8.1,8.1,0,0,1,6,5.76,10.82,10.82,0,0,1,.21,2.13,7.92,7.92,0,0,1-12.31,6.56,7.81,7.81,0,0,1-3.57-6.09A7.9,7.9,0,0,1,33.84,48,7.77,7.77,0,0,1,39.84,46.89Z" transform="translate(-3.6 -3.31)"/><path class="cls-1" d="M36.82,49a5.8,5.8,0,0,0-1.15,10.92,3.88,3.88,0,0,0,2.42.46,4,4,0,0,0,2.44-.46A5.77,5.77,0,0,0,42,50.37,6.13,6.13,0,0,0,39.08,49,4.28,4.28,0,0,0,36.82,49Z" transform="translate(-3.6 -3.31)"/></svg>