<?xml version="1.0" encoding="utf-8"?>
<!-- Generator: Adobe Illustrator 24.0.3, SVG Export Plug-In . SVG Version: 6.00 Build 0)  -->
<svg version="1.1" id="svg23341" xmlns:svg="http://www.w3.org/2000/svg"
	 xmlns="http://www.w3.org/2000/svg" xmlns:xlink="http://www.w3.org/1999/xlink" x="0px" y="0px" viewBox="0 0 361 338"
	 style="enable-background:new 0 0 361 338;" xml:space="preserve">
<style type="text/css">
	.st0{fill:none;stroke:#00A6D0;stroke-width:2.3919;stroke-miterlimit:10;}
	.st1{fill:none;stroke:#00A6D0;stroke-width:2.3919;stroke-miterlimit:7;}
	.st2{fill:#FCBB85;stroke:#00A6D0;stroke-width:2.3919;stroke-miterlimit:7;}
	.st3{fill:none;stroke:#00A6D0;stroke-width:2.3919;stroke-miterlimit:7;stroke-dasharray:9.5674,19.1349;}
	.st4{fill:none;stroke:#FFFFFF;stroke-width:1.9052;stroke-miterlimit:4.4455;}
	.st5{fill:none;stroke:#FFFFFF;stroke-width:0.7973;stroke-dasharray:0.7973,0.7973;}
</style>
	<rect id="rect1881" x="1.2" y="1.5" class="st0" width="358.6" height="335.3"/>
	<path id="path6321" class="st1"
		  d="M223.7,336.6h-86.1c0-23.8,19.3-43.1,43-43.1S223.7,312.8,223.7,336.6L223.7,336.6z"/>
	<path id="path24180" class="st1" d="M31.3,1.6c0,0,0,0,0,38.3c0,82.6,66.9,149.6,149.4,149.6s149.4-67,149.4-149.6
	c0-38.3,0-38.3,0-38.3"/>
	<path id="path24184" class="st2" d="M109,1.2c0,0,0,0,28.7,139.2c86.1,0,86.1,0,86.1,0C252.4,2,252.4,2,252.4,2"/>
	<path id="path24186" class="st2" d="M137.7,140.8c0,23.8,19.3,43.1,43,43.1c23.8,0,43-19.3,43-43.1"/>
	<path id="path24196" class="st3" d="M137.7,139.2c0-23.8,19.3-43.1,43-43.1c23.8,0,43,19.3,43,43.1"/>
	<path id="path24198" class="st1" d="M244.8,42.3c2.4,0.8,2.4,0.8,2.4,0.8"/>
	<path id="path24200" class="st1" d="M240.1,72.6c1.9-9.7,1.9-9.7,1.9-9.7"/>
	<path id="path24202" class="st1" d="M235.3,90.5c2.4,0.8,2.4,0.8,2.4,0.8"/>
	<path id="path24204" class="st1" d="M231.3,110.5c2.4,0.8,2.4,0.8,2.4,0.8"/>
	<path id="path24206" class="st1" d="M116.5,42.3c-2.4,0.8-2.4,0.8-2.4,0.8"/>
	<path id="path24208" class="st1" d="M121.6,72.6c-1.9-9.7-1.9-9.7-1.9-9.7"/>
	<path id="path24210" class="st1" d="M126.1,90.5c-2.4,0.8-2.4,0.8-2.4,0.8"/>
	<path id="path24212" class="st1" d="M130.5,110.5c-2.4,0.8-2.4,0.8-2.4,0.8"/>
	<g id="g4396" transform="matrix(0.7969095,0,0,0.7976645,34.332885,85.737075)">
	<path id="path24190" class="st4" d="M189.2-59c0-3-2.5-5.5-5.5-5.5c-3,0-5.5,2.5-5.5,5.5c0,3,2.5,5.5,5.5,5.5
		C186.7-53.5,189.2-55.9,189.2-59z"/>
		<path id="path24192" class="st4" d="M209.7-69.5c-52,0-52,0-52,0"/>
		<path id="path24194" class="st4" d="M183.7-63.5c0-5,0-5,0-5"/>
</g>
	<path id="path4405" class="st5" d="M160.4,26.7V4.9"/>
	<path id="path4916" class="st5" d="M201,26.7V4.9"/>
</svg>
