<?xml version="1.0" encoding="UTF-8" standalone="no"?>
<!DOCTYPE svg PUBLIC "-//W3C//DTD SVG 1.1//EN" "http://www.w3.org/Graphics/SVG/1.1/DTD/svg11.dtd">
<!-- Created with Inkscape (http://www.inkscape.org/) -->
<svg
        xmlns:svg="http://www.w3.org/2000/svg"
        xmlns:xlink="http://www.w3.org/1999/xlink"
        xmlns="http://www.w3.org/2000/svg"
        version="1.1"
        width="361"
        height="338"
        id="svg23341">
  <defs
          id="defs23344"/>
  <g
          transform="translate(-169.05157,-85.737642)"
          id="g4960">
    <rect
            width="358.60928"
            height="335.30661"
            x="170.2475"
            y="87.233994"
            id="rect1881"
            style="fill:#ba7300;fill-opacity:1;stroke:#000000;stroke-width:2.39186072;stroke-miterlimit:10;stroke-dasharray:none;stroke-opacity:1"/>
    <path
            d="M 392.78197,422.35149 L 306.71566,422.35149 C 306.71136,398.5594 325.97922,379.26981 349.74881,379.26981 C 373.5184,379.26981 392.78626,398.5594 392.78197,422.35149 L 392.78197,422.35149 z"
            id="path6321"
            style="fill:none;fill-opacity:1;stroke:#000000;stroke-width:2.39186072;stroke-miterlimit:7;stroke-dasharray:none;stroke-opacity:1"/>
    <path
            d="M 200.32824,87.337102 C 200.32824,87.337102 200.32824,87.337102 200.33294,125.62499 C 200.33294,208.18069 267.27124,275.18239 349.7488,275.18239 C 432.22634,275.18239 499.16465,208.18067 499.16465,125.62499 C 499.1693,87.337102 499.1693,87.337102 499.1693,87.337102"
            id="path24180"
            style="fill:none;fill-opacity:1;stroke:#000000;stroke-width:2.39186072;stroke-miterlimit:7;stroke-dasharray:none;stroke-opacity:1"/>
    <path
            d="M 278.02691,86.933572 C 278.02691,86.933572 278.02691,86.933572 306.71565,226.12603 C 392.78188,226.12603 392.78188,226.12603 392.78188,226.12603 C 421.47063,87.731236 421.47063,87.731236 421.47063,87.731236"
            id="path24184"
            style="fill:none;fill-opacity:0.75;fill-rule:evenodd;stroke:#000000;stroke-width:2.39186072;stroke-linecap:butt;stroke-linejoin:miter;stroke-miterlimit:7;stroke-dasharray:none;stroke-opacity:1"/>
    <path
            d="M 306.7156,226.52484 C 306.7225,250.30902 325.98707,269.58624 349.74874,269.58624 C 373.51041,269.58624 392.77498,250.30902 392.78188,226.52484"
            id="path24186"
            style="fill:none;fill-opacity:1;stroke:#000000;stroke-width:2.39186072;stroke-miterlimit:7;stroke-dasharray:none;stroke-opacity:1"/>
    <path
            d="M 306.7156,224.92954 C 306.7225,201.14535 325.98707,181.86813 349.74874,181.86813 C 373.51041,181.86813 392.77498,201.14535 392.78188,224.92954"
            id="path24196"
            style="fill:none;fill-opacity:1;stroke:#000000;stroke-width:2.39186072;stroke-miterlimit:7;stroke-dasharray:9.56744293, 19.13488586;stroke-dashoffset:0;stroke-opacity:1"/>
    <path
            d="M 413.89998,128.01329 C 416.29071,128.81096 416.29071,128.81096 416.29071,128.81096"
            id="path24198"
            style="fill:none;fill-opacity:0.75;fill-rule:evenodd;stroke:#000000;stroke-width:2.39186072;stroke-linecap:butt;stroke-linejoin:miter;stroke-miterlimit:7;stroke-dasharray:none;stroke-opacity:1"/>
    <path
            d="M 409.11852,158.38174 C 410.99375,148.69537 410.99375,148.69537 410.99375,148.69537"
            id="path24200"
            style="fill:none;fill-opacity:0.75;fill-rule:evenodd;stroke:#000000;stroke-width:2.39186072;stroke-linecap:butt;stroke-linejoin:miter;stroke-miterlimit:7;stroke-dasharray:none;stroke-opacity:1"/>
    <path
            d="M 404.33707,176.272 C 406.72779,177.06966 406.72779,177.06966 406.72779,177.06966"
            id="path24202"
            style="fill:none;fill-opacity:0.75;fill-rule:evenodd;stroke:#000000;stroke-width:2.39186072;stroke-linecap:butt;stroke-linejoin:miter;stroke-miterlimit:7;stroke-dasharray:none;stroke-opacity:1"/>
    <path
            d="M 400.35252,196.21361 C 402.74325,197.01127 402.74325,197.01127 402.74325,197.01127"
            id="path24204"
            style="fill:none;fill-opacity:0.75;fill-rule:evenodd;stroke:#000000;stroke-width:2.39186072;stroke-linecap:butt;stroke-linejoin:miter;stroke-miterlimit:7;stroke-dasharray:none;stroke-opacity:1"/>
    <path
            d="M 285.59755,128.01329 C 283.20682,128.81096 283.20682,128.81096 283.20682,128.81096"
            id="path24206"
            style="fill:none;fill-opacity:0.75;fill-rule:evenodd;stroke:#000000;stroke-width:2.39186072;stroke-linecap:butt;stroke-linejoin:miter;stroke-miterlimit:7;stroke-dasharray:none;stroke-opacity:1"/>
    <path
            d="M 290.66041,158.38174 C 288.78519,148.69537 288.78519,148.69537 288.78519,148.69537"
            id="path24208"
            style="fill:none;fill-opacity:0.75;fill-rule:evenodd;stroke:#000000;stroke-width:2.39186072;stroke-linecap:butt;stroke-linejoin:miter;stroke-miterlimit:7;stroke-dasharray:none;stroke-opacity:1"/>
    <path
            d="M 295.16046,176.272 C 292.76974,177.06966 292.76974,177.06966 292.76974,177.06966"
            id="path24210"
            style="fill:none;fill-opacity:0.75;fill-rule:evenodd;stroke:#000000;stroke-width:2.39186072;stroke-linecap:butt;stroke-linejoin:miter;stroke-miterlimit:7;stroke-dasharray:none;stroke-opacity:1"/>
    <path
            d="M 299.54347,196.21361 C 297.15274,197.01127 297.15274,197.01127 297.15274,197.01127"
            id="path24212"
            style="fill:none;fill-opacity:0.75;fill-rule:evenodd;stroke:#000000;stroke-width:2.39186072;stroke-linecap:butt;stroke-linejoin:miter;stroke-miterlimit:7;stroke-dasharray:none;stroke-opacity:1"/>
    <g
            transform="matrix(0.7969095,0,0,0.7976645,34.332885,85.737075)"
            id="g4396">
      <path
              d="M 401.2987,48.500306 C 401.2987,45.462746 398.83627,43.000317 395.79871,43.000317 C 392.76114,43.000317 390.29871,45.462746 390.29871,48.500306 C 390.29871,51.537866 392.76114,54.000295 395.79871,54.000295 C 398.83627,54.000295 401.2987,51.537866 401.2987,48.500306 z"
              id="path24190"
              style="fill:none;fill-opacity:1;stroke:#ffffff;stroke-width:3;stroke-miterlimit:7;stroke-dasharray:none;stroke-opacity:1"/>
      <path
              d="M 421.79885,38 C 369.79885,38 369.79885,38 369.79885,38"
              id="path24192"
              style="fill:none;fill-opacity:0.75;fill-rule:evenodd;stroke:#ffffff;stroke-width:3;stroke-linecap:butt;stroke-linejoin:miter;stroke-miterlimit:7;stroke-dasharray:none;stroke-opacity:1"/>
      <path
              d="M 395.79885,44 C 395.79885,39 395.79885,39 395.79885,39"
              id="path24194"
              style="fill:none;fill-opacity:0.75;fill-rule:evenodd;stroke:#ffffff;stroke-width:3;stroke-linecap:butt;stroke-linejoin:miter;stroke-miterlimit:7;stroke-dasharray:none;stroke-opacity:1"/>
    </g>
    <path
            d="M 329.44733,112.40395 L 329.44733,90.64756"
            id="path4405"
            style="fill:none;fill-rule:evenodd;stroke:#000000;stroke-width:0.79728693;stroke-linecap:butt;stroke-linejoin:miter;marker-start:none;stroke-miterlimit:4;stroke-dasharray:0.79728691, 0.79728691;stroke-dashoffset:0;stroke-opacity:1"/>
    <path
            d="M 370.08054,112.40395 L 370.08054,90.64756"
            id="path4916"
            style="fill:none;fill-rule:evenodd;stroke:#000000;stroke-width:0.79728693;stroke-linecap:butt;stroke-linejoin:miter;marker-start:none;stroke-miterlimit:4;stroke-dasharray:0.79728691, 0.79728691;stroke-dashoffset:0;stroke-opacity:1"/>
  </g>
</svg>
